<svg xmlns="http://www.w3.org/2000/svg" width="22" height="22" viewBox="0 0 22 22">
    <path fill="#6D9F03" fill-rule="evenodd" d="M8.16 13.77c1.02 0 1.96-.255 2.82-.765a5.66 5.66 0 0 0 2.04-2.055c.5-.86.75-1.8.75-2.82 0-1.02-.25-1.96-.75-2.82-.5-.86-1.18-1.54-2.04-2.04-.86-.5-1.8-.75-2.82-.75-1.02 0-1.96.25-2.82.75a5.66 5.66 0 0 0-2.055 2.04c-.51.86-.765 1.8-.765 2.82 0 1.02.255 1.96.765 2.82a5.78 5.78 0 0 0 2.055 2.055c.86.51 1.8.765 2.82.765zm7.5 0l6.21 6.21-1.89 1.89-6.21-6.24v-.99l-.36-.33a7.419 7.419 0 0 1-2.415 1.425c-.91.33-1.855.495-2.835.495-1.48 0-2.845-.36-4.095-1.08a8.01 8.01 0 0 1-2.955-2.91A7.973 7.973 0 0 1 0 8.13c0-1.48.365-2.845 1.095-4.095a8.02 8.02 0 0 1 2.97-2.955A8.061 8.061 0 0 1 8.16 0c1.48 0 2.85.37 4.11 1.11 1.22.72 2.185 1.7 2.895 2.94s1.065 2.6 1.065 4.08c0 1-.165 1.955-.495 2.865a7.419 7.419 0 0 1-1.425 2.415l.33.36h1.02z"/>
</svg>
